<svg width="300" height="87" viewBox="0 0 300 87" fill="none" xmlns="http://www.w3.org/2000/svg">
<path d="M1.95249 67.7514V34.3638H43.6381V32.4113H1.95249V1.95249H46.274V0H0V69.7039H46.6645V67.7514H1.95249ZM84.2499 19.5249L66.9704 42.2714L50.0814 19.5249H47.5431L65.7989 43.7358L45.7859 69.7039H48.1289L66.9704 45.2001L85.9095 69.7039H88.3501L68.2395 43.7358L86.5929 19.5249H84.2499ZM94.2076 86.8858V55.6459H94.4029C95.5744 60.2018 97.8848 63.8627 101.334 66.6287C104.784 69.3947 109.177 70.7777 114.514 70.7777C117.963 70.7777 121.022 70.0781 123.69 68.6788C126.359 67.2795 128.588 65.3759 130.377 62.9678C132.167 60.5597 133.534 57.7612 134.478 54.5721C135.421 51.383 135.893 48.0313 135.893 44.5168C135.893 40.7419 135.405 37.26 134.429 34.0709C133.453 30.8819 132.037 28.1159 130.182 25.7729C128.327 23.4299 126.082 21.6076 123.446 20.3059C120.81 19.0042 117.833 18.3534 114.514 18.3534C111.975 18.3534 109.616 18.7276 107.436 19.4761C105.255 20.2245 103.319 21.2821 101.627 22.6489C99.9349 24.0156 98.4706 25.6264 97.234 27.4813C95.9974 29.3362 95.0537 31.37 94.4029 33.5828H94.2076V19.5249H92.2551V86.8858H94.2076ZM114.514 68.9229C108.396 68.9229 103.482 66.824 99.7722 62.6261C96.0625 58.4282 94.2076 52.3918 94.2076 44.5168C94.2076 41.2626 94.6632 38.1712 95.5744 35.2424C96.4855 32.3137 97.8034 29.7429 99.5281 27.5301C101.253 25.3173 103.384 23.56 105.923 22.2584C108.461 20.9567 111.324 20.3059 114.514 20.3059C117.768 20.3059 120.615 20.9567 123.056 22.2584C125.496 23.56 127.514 25.3335 129.108 27.5789C130.703 29.8243 131.907 32.395 132.72 35.2912C133.534 38.1875 133.941 41.2626 133.941 44.5168C133.941 47.4455 133.567 50.3579 132.818 53.2541C132.07 56.1504 130.914 58.7536 129.352 61.0641C127.79 63.3746 125.789 65.262 123.349 66.7263C120.908 68.1907 117.963 68.9229 114.514 68.9229ZM146.632 69.7039V41.2952C146.632 38.5617 147.022 35.8933 147.803 33.2899C148.584 30.6866 149.788 28.3925 151.416 26.4074C153.043 24.4224 155.109 22.8604 157.615 21.7214C160.12 20.5825 163.098 20.1106 166.547 20.3059V18.3534C163.554 18.2883 160.934 18.6137 158.689 19.3296C156.443 20.0456 154.507 21.0218 152.88 22.2584C151.253 23.495 149.951 24.943 148.975 26.6027C147.999 28.2623 147.283 30.0358 146.827 31.9232H146.632V19.5249H144.679V69.7039H146.632ZM168.988 45.0049H210.966C211.097 41.5555 210.755 38.2363 209.941 35.0472C209.128 31.8581 207.826 29.027 206.036 26.5539C204.247 24.0807 201.936 22.0957 199.105 20.5988C196.274 19.1018 192.906 18.3534 189.001 18.3534C186.202 18.3534 183.469 18.9391 180.801 20.1106C178.132 21.2821 175.789 22.9906 173.772 25.2359C171.754 27.4813 170.127 30.231 168.89 33.4852C167.654 36.7394 167.035 40.4491 167.035 44.6144C167.035 48.3241 167.459 51.7898 168.305 55.0114C169.151 58.233 170.452 61.0316 172.21 63.4071C173.967 65.7826 176.228 67.6212 178.994 68.9229C181.761 70.2245 185.096 70.8428 189.001 70.7777C194.728 70.7777 199.544 69.167 203.449 65.9453C207.354 62.7237 209.665 58.1842 210.381 52.3267H208.428C207.582 57.8588 205.418 62.0078 201.936 64.7738C198.454 67.5399 194.077 68.9229 188.806 68.9229C185.226 68.9229 182.2 68.3046 179.727 67.068C177.253 65.8314 175.236 64.1393 173.674 61.9915C172.112 59.8438 170.957 57.3218 170.208 54.4256C169.46 51.5294 169.053 48.3892 168.988 45.0049ZM209.014 43.0524H168.988C169.183 39.5379 169.834 36.3814 170.94 33.5828C172.047 30.7842 173.495 28.3925 175.285 26.4074C177.075 24.4224 179.157 22.9092 181.533 21.8679C183.908 20.8265 186.463 20.3059 189.196 20.3059C192.45 20.3059 195.314 20.9079 197.787 22.1119C200.26 23.316 202.327 24.9593 203.986 27.042C205.646 29.1246 206.899 31.549 207.745 34.315C208.591 37.081 209.014 39.9935 209.014 43.0524ZM251.481 34.3638H253.433C253.433 28.7666 251.806 24.699 248.552 22.1608C245.298 19.6225 240.872 18.3534 235.275 18.3534C232.151 18.3534 229.515 18.7439 227.367 19.5249C225.22 20.3059 223.462 21.3147 222.096 22.5513C220.729 23.7878 219.753 25.1546 219.167 26.6515C218.581 28.1484 218.288 29.5802 218.288 30.947C218.288 33.6805 218.776 35.8607 219.753 37.4878C220.729 39.1149 222.258 40.384 224.341 41.2952C225.773 41.946 227.4 42.5317 229.222 43.0524C231.045 43.5731 233.16 44.1263 235.568 44.712C237.716 45.2327 239.831 45.7533 241.913 46.274C243.996 46.7947 245.835 47.4943 247.429 48.3729C249.024 49.2515 250.325 50.3742 251.334 51.741C252.343 53.1077 252.847 54.8975 252.847 57.1103C252.847 59.2581 252.343 61.0804 251.334 62.5773C250.325 64.0742 249.04 65.2945 247.478 66.2382C245.916 67.1819 244.175 67.8653 242.255 68.2883C240.335 68.7114 238.464 68.9229 236.642 68.9229C230.719 68.9229 226.18 67.605 223.023 64.9691C219.867 62.3332 218.288 58.1842 218.288 52.522H216.336C216.336 58.835 218.044 63.4559 221.461 66.3846C224.878 69.3134 229.938 70.7777 236.642 70.7777C238.789 70.7777 240.953 70.5337 243.134 70.0456C245.314 69.5574 247.267 68.7602 248.991 67.6538C250.716 66.5473 252.115 65.1155 253.189 63.3583C254.263 61.601 254.8 59.4533 254.8 56.9151C254.8 54.507 254.328 52.5545 253.384 51.0576C252.441 49.5607 251.204 48.3241 249.675 47.3479C248.145 46.3716 246.42 45.6069 244.5 45.0537C242.581 44.5005 240.644 43.9636 238.692 43.4429C235.958 42.727 233.567 42.1087 231.516 41.588C229.466 41.0674 227.563 40.4491 225.805 39.7332C224.113 39.0172 222.763 37.9922 221.754 36.658C220.745 35.3238 220.241 33.4201 220.241 30.947C220.241 30.4914 220.371 29.6778 220.631 28.5063C220.892 27.3348 221.51 26.1471 222.486 24.9431C223.462 23.739 224.959 22.6652 226.977 21.7214C228.994 20.7777 231.76 20.3059 235.275 20.3059C237.683 20.3059 239.88 20.5662 241.865 21.0869C243.85 21.6076 245.558 22.4374 246.99 23.5763C248.422 24.7153 249.528 26.1633 250.309 27.9206C251.09 29.6778 251.481 31.8256 251.481 34.3638ZM296.681 34.3638H298.633C298.633 28.7666 297.006 24.699 293.752 22.1608C290.498 19.6225 286.072 18.3534 280.475 18.3534C277.351 18.3534 274.715 18.7439 272.568 19.5249C270.42 20.3059 268.663 21.3147 267.296 22.5513C265.929 23.7878 264.953 25.1546 264.367 26.6515C263.781 28.1484 263.488 29.5802 263.488 30.947C263.488 33.6805 263.977 35.8607 264.953 37.4878C265.929 39.1149 267.459 40.384 269.541 41.2952C270.973 41.946 272.6 42.5317 274.422 43.0524C276.245 43.5731 278.36 44.1263 280.768 44.712C282.916 45.2327 285.031 45.7533 287.114 46.274C289.196 46.7947 291.035 47.4943 292.629 48.3729C294.224 49.2515 295.526 50.3742 296.534 51.741C297.543 53.1077 298.048 54.8975 298.048 57.1103C298.048 59.2581 297.543 61.0804 296.534 62.5773C295.526 64.0742 294.24 65.2945 292.678 66.2382C291.116 67.1819 289.375 67.8653 287.455 68.2883C285.535 68.7114 283.664 68.9229 281.842 68.9229C275.919 68.9229 271.38 67.605 268.223 64.9691C265.067 62.3332 263.488 58.1842 263.488 52.522H261.536C261.536 58.835 263.244 63.4559 266.661 66.3846C270.078 69.3134 275.138 70.7777 281.842 70.7777C283.99 70.7777 286.154 70.5337 288.334 70.0456C290.514 69.5574 292.467 68.7602 294.191 67.6538C295.916 66.5473 297.315 65.1155 298.389 63.3583C299.463 61.601 300 59.4533 300 56.9151C300 54.507 299.528 52.5545 298.584 51.0576C297.641 49.5607 296.404 48.3241 294.875 47.3479C293.345 46.3716 291.621 45.6069 289.701 45.0537C287.781 44.5005 285.844 43.9636 283.892 43.4429C281.158 42.727 278.767 42.1087 276.717 41.588C274.666 41.0674 272.763 40.4491 271.006 39.7332C269.313 39.0172 267.963 37.9922 266.954 36.658C265.945 35.3238 265.441 33.4201 265.441 30.947C265.441 30.4914 265.571 29.6778 265.831 28.5063C266.092 27.3348 266.71 26.1471 267.686 24.9431C268.663 23.739 270.159 22.6652 272.177 21.7214C274.195 20.7777 276.961 20.3059 280.475 20.3059C282.883 20.3059 285.08 20.5662 287.065 21.0869C289.05 21.6076 290.758 22.4374 292.19 23.5763C293.622 24.7153 294.728 26.1633 295.509 27.9206C296.29 29.6778 296.681 31.8256 296.681 34.3638Z" fill="white"/>
</svg>
