<svg width="173" height="385" viewBox="0 0 173 385" fill="none" xmlns="http://www.w3.org/2000/svg">
<path d="M83.895 284.396C83.895 284.396 83.895 151.555 88.3008 151.571C91.7137 151.571 96.152 322.929 96.152 322.929C90.0473 322.208 83.8954 294.73 83.8954 284.396L83.895 284.396ZM169.389 153.093C157.608 101.597 131.791 57.3287 96.2069 23.1545L96.1199 23.0716C91.7835 16.4565 87.8276 8.85969 84.6486 0.86946L84.3433 0C84.3542 0.260438 84.3594 0.566552 84.3594 0.874269C84.3594 8.11363 81.1139 14.5949 75.9973 18.9422L75.9637 18.9703C30.1443 57.8725 0.985652 115.194 0.0200288 179.349L0.0180235 179.514C0.0068046 180.306 0 181.241 0 182.179C0 245.737 30.5794 302.152 77.8292 337.516L78.3356 337.878L79.4575 338.68C81.5197 353.929 83.282 369.214 84.7444 384.535H92.451C94.5825 365.418 97.4562 348.68 101.214 332.28L100.622 335.347C105.696 331.816 110.141 328.169 114.282 324.204L114.241 324.244C150.156 290.947 172.56 243.513 172.56 190.846C172.56 190.067 172.555 189.289 172.545 188.513L172.546 188.631C172.509 176.047 171.362 163.758 169.199 151.822L169.39 153.093L169.389 153.093Z" fill="white"/>
</svg>
