<svg width="173" height="105" viewBox="0 0 173 105" fill="none" xmlns="http://www.w3.org/2000/svg">
<path d="M40.7169 27.1517H73.2633V29.7385H43.7003V49.2078H71.5004V51.7947H43.7003V73.1701H73.6023V75.7569H40.7169V27.1517ZM76.1789 27.1517H79.637L94.9609 48.5271L110.624 27.1517L131.928 0L96.9272 50.7735L114.963 75.7569H111.37L94.9609 53.02L78.4843 75.7569H74.9584L93.1302 50.7735L76.1789 27.1517ZM116.252 29.7385V27.1517H153.341V29.7385H136.254V75.7569H133.271V29.7385H116.252ZM0 27.1517H3.72927L55.1538 104.104L33.9025 75.7569L3.11903 30.8277L2.98342 75.7569H0L0 27.1517ZM153.04 72.3894C152.431 72.3894 151.974 71.9171 151.974 71.3068C151.974 70.6965 152.431 70.2242 153.04 70.2242C153.657 70.2242 154.107 70.6965 154.107 71.3068C154.107 71.9171 153.657 72.3894 153.04 72.3894ZM155.972 69.5412H157.568C157.59 70.4058 158.221 70.9871 159.15 70.9871C160.188 70.9871 160.776 70.3623 160.776 69.1925V61.7813H162.401V69.1997C162.401 71.3068 161.182 72.5202 159.165 72.5202C157.271 72.5202 155.972 71.3431 155.972 69.5412ZM164.527 69.4468H166.138C166.276 70.4422 167.248 71.0743 168.649 71.0743C169.955 71.0743 170.913 70.3986 170.913 69.4686C170.913 68.6693 170.303 68.1898 168.917 67.8628L167.568 67.5358C165.674 67.0926 164.81 66.1771 164.81 64.6368C164.81 62.7695 166.334 61.527 168.62 61.527C170.746 61.527 172.299 62.7695 172.393 64.5351H170.811C170.659 63.5687 169.817 62.9657 168.598 62.9657C167.314 62.9657 166.457 63.5832 166.457 64.5278C166.457 65.2762 167.009 65.7049 168.373 66.0246L169.527 66.3079C171.675 66.8093 172.56 67.6812 172.56 69.2578C172.56 71.2632 171.007 72.5202 168.525 72.5202C166.203 72.5202 164.643 71.3213 164.527 69.4468Z" fill="white"/>
</svg>
