<svg width="173" height="156" viewBox="0 0 173 156" fill="none" xmlns="http://www.w3.org/2000/svg">
<path d="M88.437 94.908C80.1131 94.908 73.338 88.135 73.338 79.809C73.338 71.483 80.1131 64.71 88.437 64.71C96.7609 64.71 103.536 71.483 103.536 79.809C103.536 88.135 96.7609 94.908 88.437 94.908ZM88.437 66.867C81.2995 66.867 75.495 72.6715 75.495 79.809C75.495 86.9465 81.2995 92.751 88.437 92.751C95.5745 92.751 101.379 86.9465 101.379 79.809C101.379 72.6715 95.5745 66.867 88.437 66.867Z" fill="white"/>
<path d="M52.784 2.14406C62.4775 2.14406 74.3453 8.42093 86.2865 19.1132C98.2255 8.42956 110.087 2.15916 119.772 2.15916C123.273 2.15916 126.456 2.95725 129.232 4.5297C133.883 7.16555 137.11 11.7406 138.822 18.1317C141.145 26.5807 140.658 36.9839 137.886 48.5023C157.778 55.148 170.403 65.6332 170.403 77.6455C170.403 89.6579 157.778 100.143 137.884 106.791C140.777 119.243 141.262 129.927 138.82 137.159C137.108 143.548 133.883 148.126 129.237 150.761C126.456 152.336 123.93 153.141 120.432 153.141H119.532C109.843 153.141 98.2168 146.864 86.28 136.184C74.341 146.874 62.4775 153.147 52.7883 153.147C49.2875 153.147 46.1037 152.349 43.3277 150.776C38.6729 148.134 35.4438 143.553 33.7333 137.157C31.1665 129.14 31.6842 118.6 34.6695 106.789C14.7798 100.141 2.157 89.6579 2.157 77.6455C2.157 65.6354 14.7798 55.1502 34.6673 48.5023C33.1854 41.904 32.2385 35.7782 32.2062 30.1915C32.1803 25.7783 32.7821 21.6735 33.7312 18.1339C35.4438 11.7362 38.6707 7.15477 43.3255 4.5146C46.0994 2.93999 49.2831 2.14406 52.784 2.14406ZM40.8924 46.6149C48.3923 44.555 56.7205 42.9976 65.6612 42.0486C70.7992 35.1246 76.1766 28.8995 81.5928 23.5329C71.0839 14.1585 60.8511 8.6129 52.784 8.6129C50.4134 8.6129 48.3082 9.12627 46.52 10.1422C43.429 11.8959 41.2311 15.1465 39.9822 19.8077C38.1314 26.7144 38.5521 36.0499 40.8924 46.6149ZM131.661 46.6128C134.001 36.0478 134.422 26.7101 132.571 19.8034C131.325 15.1508 129.127 11.9066 126.042 10.1573C124.252 9.14137 122.14 8.628 119.772 8.628C111.711 8.628 101.485 14.1672 90.978 23.5329C96.392 28.8995 101.763 35.1246 106.897 42.0464C115.833 42.9955 124.161 44.5528 131.661 46.6128ZM74.3669 41.3346C78.2538 41.1038 82.1515 40.9032 86.2045 40.9032C90.2575 40.9032 94.304 41.106 98.191 41.3346C94.2911 36.4188 90.2877 31.9279 86.2822 27.9526C82.2766 31.9279 78.2711 36.4188 74.3669 41.3346ZM86.28 107.844C92.2355 107.844 97.9364 107.583 103.359 107.106C106.636 102.539 109.804 97.6905 112.79 92.613C115.708 87.654 118.348 82.6347 120.706 77.6455C118.348 72.6564 115.708 67.6392 112.792 62.6824C109.804 57.6027 106.638 52.7559 103.359 48.1895C97.9386 47.7085 92.2376 47.4475 86.28 47.4475C80.3224 47.4475 74.6193 47.7085 69.1966 48.1874C65.9158 52.7538 62.745 57.6027 59.7575 62.6803C56.8413 67.6392 54.2011 72.6585 51.8435 77.6477C54.2011 82.6368 56.8391 87.654 59.7554 92.6108C62.7428 97.6884 65.9115 102.537 69.1901 107.104C74.6149 107.583 80.3202 107.844 86.28 107.844ZM124.127 69.9084C126.553 64.0651 128.562 58.3274 130.093 52.84C124.586 51.3258 118.503 50.0748 111.914 49.158C114.131 52.4518 116.29 55.8663 118.368 59.3995C120.425 62.8917 122.339 66.4032 124.127 69.9084ZM48.4225 69.9105C50.2085 66.4054 52.1239 62.8938 54.1774 59.3995C56.2567 55.8663 58.418 52.4539 60.6376 49.1602C54.0479 50.0748 47.9652 51.328 42.4584 52.8422C43.9899 58.3296 45.998 64.0651 48.4225 69.9105ZM136.297 100.557C153.716 94.6556 163.932 85.9845 163.932 77.6455C163.932 69.3066 153.716 60.6354 136.297 54.7339C134.241 62.0785 131.402 69.7962 127.841 77.6434C131.402 85.4927 134.241 93.2104 136.297 100.557ZM36.2592 100.555C38.3126 93.2126 41.1491 85.4949 44.7103 77.6498C41.1491 69.8027 38.3105 62.0828 36.257 54.7382C18.8392 60.6397 8.628 69.3087 8.628 77.6455C8.628 85.9845 18.8414 94.6535 36.2592 100.555ZM111.914 106.133C118.503 105.218 124.586 103.967 130.093 102.451C128.559 96.9636 126.551 91.226 124.127 85.3805C122.339 88.8857 120.423 92.3973 118.368 95.8916C116.29 99.4248 114.131 102.839 111.914 106.133ZM60.6311 106.131C58.4137 102.837 56.2546 99.4248 54.1752 95.8938C52.1217 92.4016 50.2085 88.8921 48.4225 85.3892C45.998 91.2303 43.992 96.9658 42.4605 102.451C47.9652 103.963 54.0458 105.214 60.6311 106.131ZM52.7904 146.676C60.8554 146.676 71.0839 141.133 81.5907 131.763C76.1701 126.394 70.7949 120.166 65.6548 113.24C56.7183 112.293 48.3945 110.736 40.8967 108.676C38.5585 119.241 38.1379 128.577 39.9865 135.483C41.2332 140.142 43.4334 143.393 46.5222 145.147C48.3082 146.163 50.4199 146.676 52.7904 146.676ZM119.772 146.663C122.142 146.663 124.25 146.15 126.042 145.134C129.127 143.384 131.32 140.14 132.565 135.485C134.416 128.577 133.995 119.241 131.657 108.678C124.157 110.738 115.831 112.296 106.892 113.243C101.759 120.166 96.3855 126.392 90.9715 131.76C101.478 141.122 111.707 146.661 119.772 146.663ZM86.28 127.343C90.2856 123.365 94.2889 118.872 98.191 113.956C94.3062 114.187 90.5142 114.675 86.459 114.675C82.4017 114.675 78.2473 114.187 74.3604 113.956C78.2646 118.874 82.2723 123.367 86.28 127.343ZM52.0182 0.148833C48.1378 0.148833 45.3639 0.877899 42.2621 2.63585C37.0875 5.57153 33.5155 10.5973 31.6475 17.5752C29.5768 25.3124 29.7558 35.4827 32.1566 47.0852C11.6888 54.3262 0 65.4046 0 77.6455C0 89.8887 11.6909 100.965 32.1587 108.206C29.758 119.808 29.5789 129.979 31.6518 137.716C33.5176 144.689 37.0875 149.715 42.2664 152.655C45.3725 154.415 49.1041 155.164 52.9824 155.164C62.6609 155.164 74.0196 149.696 86.2822 139.06C98.5425 149.685 110.093 155.289 119.77 155.291C123.65 155.291 127.192 154.4 130.298 152.64C135.468 149.709 139.036 144.689 140.902 137.72C142.975 129.981 142.796 119.811 140.395 108.21C160.867 100.967 172.56 89.8887 172.56 77.6455C172.56 65.4024 160.869 54.324 140.397 47.083C142.8 35.4783 142.977 25.3081 140.904 17.5709C139.036 10.6017 135.466 5.58232 130.294 2.65095C127.19 0.892998 123.648 0 119.77 0C110.095 0 98.5469 5.60604 86.2843 16.2357C74.0196 5.59741 62.415 0.142362 52.7343 0.142362L52.0182 0.148833ZM42.536 43.9467C41.5395 38.9339 40.8708 34.2359 40.8342 30.116C40.8018 26.406 41.3109 23.177 42.0637 20.3642C43.1573 16.2832 45.0144 13.4748 47.5834 12.0166C49.0416 11.1884 50.8189 10.6275 52.8098 10.6275C59.6712 10.6275 68.7005 15.3255 78.4415 23.6429C73.6508 28.5457 68.9679 34.0375 64.4943 40.0037C56.7615 40.8665 49.3888 42.1888 42.536 43.9467ZM94.1272 23.6472C103.866 15.3363 112.917 10.785 119.77 10.785C121.763 10.785 123.516 11.2056 124.977 12.0339C127.541 13.4877 129.396 16.2897 130.488 20.3621C132.373 26.4405 132.129 34.5206 130.017 43.9446C123.165 42.1888 115.794 40.8644 108.064 40.0059C103.592 34.0418 98.9136 28.5501 94.1272 23.6472ZM79.1037 38.9489C81.4677 36.1448 83.8685 33.4917 86.2822 31.0155C88.6958 33.4917 91.0944 36.1448 93.4563 38.9489C91.0427 38.8627 88.6419 38.8195 86.28 38.8195C83.9181 38.8195 81.5195 38.8627 79.1037 38.9489ZM70.3721 50.2516C75.5597 49.8224 80.9048 49.5161 86.28 49.5161C91.6531 49.5161 96.9981 49.8224 102.184 50.2516C105.272 54.6066 108.215 59.1514 110.932 63.7739C113.568 68.2561 116.051 72.9174 118.316 77.6434C116.049 82.3715 113.566 87.035 110.93 91.5172C108.21 96.1418 105.27 100.684 102.181 105.039C96.9981 105.469 91.6531 106.045 86.28 106.045C80.9026 106.045 75.5554 105.467 70.3657 105.037C67.2747 100.684 64.3325 96.1396 61.6125 91.515C58.9767 87.0349 56.4961 82.3737 54.2313 77.6455C56.4961 72.9174 58.9789 68.254 61.6147 63.7717C64.3368 59.1493 67.2811 54.6045 70.3721 50.2516ZM123.859 64.7553C122.675 62.5595 121.461 60.4025 120.229 58.3059C119 56.2157 117.712 54.117 116.379 52.0312C120.205 52.6826 123.896 53.4612 127.41 54.3607C126.402 57.7386 125.214 61.2157 123.859 64.7553ZM45.1417 54.3607C48.6554 53.4612 52.3461 52.6826 56.1726 52.0312C54.8374 54.117 53.5497 56.2157 52.3202 58.3037C51.0885 60.4003 49.8742 62.5573 48.69 64.7531C47.3354 61.2178 46.149 57.7407 45.1417 54.3607ZM130.207 77.6434C133.259 70.8229 135.787 64.0715 137.735 57.5272C152.625 62.9607 161.775 70.5727 161.775 77.6455C161.775 84.7183 152.625 92.3304 137.735 97.7639C135.785 91.2174 133.259 84.4638 130.207 77.6434ZM34.8183 97.7617C19.9328 92.3282 10.785 84.7162 10.785 77.6455C10.785 70.5749 19.9328 62.9628 34.8161 57.5293C36.7639 64.0758 39.2898 70.8273 42.3419 77.6477C39.2919 84.466 36.7661 91.2174 34.8183 97.7617ZM116.377 103.262C117.71 101.174 119 99.0753 120.227 96.9874C121.461 94.8907 122.675 92.7316 123.859 90.5358C125.214 94.0754 126.4 97.5546 127.41 100.935C123.894 101.83 120.203 102.611 116.377 103.262ZM45.1439 100.93C46.1512 97.5525 47.3375 94.0776 48.69 90.5422C49.872 92.7359 51.0864 94.8929 52.318 96.9874C53.5454 99.0753 54.8331 101.172 56.1683 103.26C52.3439 102.606 48.6555 101.828 45.1439 100.93ZM52.7904 144.519C50.7974 144.519 49.0459 144.098 47.5856 143.27C45.0188 141.812 43.1616 139.006 42.0701 134.925C40.2777 128.788 40.4804 120.706 42.5404 111.342C49.391 113.098 56.7593 114.422 64.4878 115.281C68.9636 121.247 73.6465 126.741 78.4393 131.648C68.7005 139.968 59.6475 144.521 52.7904 144.519ZM108.061 115.285C115.792 114.425 123.163 113.102 130.015 111.346C132.399 121.571 132.586 129.72 130.483 134.927C129.394 139.001 127.541 141.803 124.979 143.255C123.516 144.083 121.765 144.504 119.774 144.504C112.915 144.504 103.86 139.953 94.1229 131.646C98.9114 126.743 103.59 121.251 108.061 115.285ZM86.28 124.28C83.8642 121.804 81.4613 119.148 79.0972 116.342C81.513 116.428 83.9159 116.472 86.28 116.472C88.6419 116.472 91.0427 116.428 93.4563 116.342C91.0944 119.148 88.6937 121.804 86.28 124.28Z" fill="white"/>
</svg>
