<svg width="177" height="115" viewBox="0 0 177 115" fill="none" xmlns="http://www.w3.org/2000/svg">
<path fill-rule="evenodd" clip-rule="evenodd" d="M88.28 2C65.272 2 50.892 14.3257 45.14 38.977C53.768 26.6513 63.834 22.0293 75.338 25.1106C81.9017 26.8687 86.5931 31.9706 91.7858 37.6181C100.245 46.8179 110.036 57.4656 131.42 57.4656C154.428 57.4656 168.808 45.1399 174.56 20.4886C165.932 32.8142 155.866 37.4363 144.362 34.3549C137.799 32.5967 133.107 27.495 127.915 21.8475C119.455 12.6477 109.664 2 88.28 2ZM45.14 57.4656C22.132 57.4656 7.752 69.7912 2 94.4429C10.628 82.1169 20.694 77.4948 32.198 80.5762C38.7617 82.3343 43.4531 87.4362 48.6458 93.0833C57.1051 102.283 66.8956 112.931 88.28 112.931C111.288 112.931 125.668 100.606 131.42 75.954C122.792 88.2798 112.726 92.9021 101.222 89.8207C94.6583 88.0623 89.9669 82.9606 84.7742 77.313C76.3149 68.1133 66.5244 57.4656 45.14 57.4656Z" stroke="white" stroke-width="3" stroke-linejoin="round"/>
</svg>
